<?xml version="1.0" encoding="UTF-8" standalone="no"?>
<!DOCTYPE svg PUBLIC "-//W3C//DTD SVG 1.1//EN"
 "http://www.w3.org/Graphics/SVG/1.1/DTD/svg11.dtd">
<!-- Generated by graphviz version 2.40.1 (20161225.0304)
 -->
<!-- Title: G Pages: 1 -->
<svg width="136pt" height="168pt"
 viewBox="0.00 0.00 136.00 168.00" xmlns="http://www.w3.org/2000/svg" xmlns:xlink="http://www.w3.org/1999/xlink">
<g id="graph0" class="graph" transform="scale(1 1) rotate(0) translate(4 164)">
<title>G</title>
<polygon fill="#ffffff" stroke="transparent" points="-4,4 -4,-164 132,-164 132,4 -4,4"/>
<g id="clust1" class="cluster">
<title>cluster_Global</title>
<path fill="none" stroke="#c0c0c0" d="M20,-8C20,-8 108,-8 108,-8 114,-8 120,-14 120,-20 120,-20 120,-140 120,-140 120,-146 114,-152 108,-152 108,-152 20,-152 20,-152 14,-152 8,-146 8,-140 8,-140 8,-20 8,-20 8,-14 14,-8 20,-8"/>
<text text-anchor="middle" x="64" y="-139.2" font-family="Times,serif" font-size="11.00" fill="#c0c0c0">Global</text>
</g>
<g id="clust2" class="cluster">
<title>cluster_\Vegvesen</title>
<path fill="none" stroke="#c0c0c0" d="M28,-16C28,-16 100,-16 100,-16 106,-16 112,-22 112,-28 112,-28 112,-112 112,-112 112,-118 106,-124 100,-124 100,-124 28,-124 28,-124 22,-124 16,-118 16,-112 16,-112 16,-28 16,-28 16,-22 22,-16 28,-16"/>
<text text-anchor="middle" x="64" y="-111.2" font-family="Times,serif" font-size="11.00" fill="#c0c0c0">Vegvesen</text>
</g>
<g id="clust3" class="cluster">
<title>cluster_\Vegvesen\MimeElastic</title>
<path fill="none" stroke="#c0c0c0" d="M36,-24C36,-24 92,-24 92,-24 98,-24 104,-30 104,-36 104,-36 104,-84 104,-84 104,-90 98,-96 92,-96 92,-96 36,-96 36,-96 30,-96 24,-90 24,-84 24,-84 24,-36 24,-36 24,-30 30,-24 36,-24"/>
<text text-anchor="middle" x="64" y="-83.2" font-family="Times,serif" font-size="11.00" fill="#c0c0c0">MimeElastic</text>
</g>
<!-- \\Vegvesen\\MimeElastic\\Elastic -->
<g id="node1" class="node">
<title>\\Vegvesen\\MimeElastic\\Elastic</title>
<polygon fill="none" stroke="#000000" points="96,-68 32,-68 32,-32 96,-32 96,-68"/>
<text text-anchor="middle" x="64" y="-47.2" font-family="Courier,monospace" font-size="11.00" fill="#000000">Elastic</text>
</g>
</g>
</svg>
